<svg xmlns="http://www.w3.org/2000/svg">
  <symbol id="slider-prev" viewBox="0 0 7 11">
    <path d="M1.05025 6.46458C0.659723 6.07406 0.659723 5.44089 1.05025 5.05037L5.29289 0.807728C5.68341 0.417204 6.31658 0.417204 6.7071 0.807728C7.09763 1.19825 7.09763 1.83142 6.7071 2.22194L2.46446 6.46458C2.07394 6.85511 1.44077 6.85511 1.05025 6.46458Z"/>
    <path d="M6.70711 10.7071C6.31658 11.0976 5.68342 11.0976 5.29289 10.7071L1.05025 6.46458C0.659723 6.07406 0.659723 5.44089 1.05025 5.05037C1.44077 4.65984 2.07394 4.65973 2.46447 5.05025L6.70711 9.29289C7.09763 9.68342 7.09763 10.3166 6.70711 10.7071Z"/>
  </symbol>

  <symbol id="slider-next" viewBox="0 0 7 11">
    <path d="M5.94975 4.53542C6.34028 4.92594 6.34028 5.55911 5.94975 5.94963L1.70711 10.1923C1.31659 10.5828 0.683424 10.5828 0.292899 10.1923C-0.097625 9.80175 -0.097625 9.16858 0.292899 8.77806L4.53554 4.53542C4.92606 4.14489 5.55923 4.14489 5.94975 4.53542Z"/>
    <path d="M0.292893 0.292893C0.683417 -0.097631 1.31658 -0.097631 1.70711 0.292893L5.94975 4.53542C6.34028 4.92594 6.34028 5.55911 5.94975 5.94963C5.55923 6.34016 4.92606 6.34027 4.53553 5.94975L0.292893 1.70711C-0.097631 1.31658 -0.0976311 0.683417 0.292893 0.292893Z"/>
  </symbol>

  <symbol id="vk" viewBox="0 0 21 13">
    <path fill-rule="evenodd" clip-rule="evenodd" d="M20.5058 0.902134C20.6615 0.393237 20.5058 0.0231313 19.8164 0.0231313H17.5256C16.9473 0.0231313 16.6804 0.346975 16.5248 0.69395C16.5248 0.69395 15.346 3.6548 13.7002 5.57473C13.1664 6.12989 12.9218 6.31495 12.6327 6.31495C12.477 6.31495 12.2768 6.12989 12.2768 5.621V0.879003C12.2768 0.277579 12.0989 0 11.6096 0H8.00661C7.65077 0 7.42836 0.277579 7.42836 0.555159C7.42836 1.13345 8.25126 1.27224 8.34022 2.89146V6.40747C8.34022 7.17082 8.20678 7.30961 7.91765 7.30961C7.13923 7.30961 5.24878 4.32562 4.11451 0.925267C3.8921 0.254448 3.6697 0 3.09144 0H0.778421C0.111203 0 0 0.323842 0 0.670817C0 1.29537 0.778422 4.44128 3.62522 8.60498C5.51567 11.4502 8.20678 12.9769 10.631 12.9769C12.0989 12.9769 12.2768 12.6299 12.2768 12.0516V9.90036C12.2768 9.20641 12.4103 9.09075 12.8773 9.09075C13.2109 9.09075 13.8114 9.2758 15.1681 10.6406C16.7249 12.2598 16.9918 13 17.8592 13H20.15C20.8172 13 21.1286 12.653 20.9506 11.9822C20.7505 11.3114 19.9943 10.3399 19.0157 9.18327C18.4819 8.53559 17.6813 7.81851 17.4366 7.47153C17.103 7.0089 17.192 6.82384 17.4366 6.40747C17.4144 6.40747 20.2167 2.29003 20.5058 0.902134Z"/>
  </symbol>

  <symbol id="youtube" viewBox="0 0 22 15">
    <path fill-rule="evenodd" clip-rule="evenodd" d="M19.0708 0.443449C19.96 0.687454 20.6603 1.40641 20.898 2.31942C21.3298 3.97415 21.3298 7.42676 21.3298 7.42676C21.3298 7.42676 21.3298 10.8792 20.898 12.5341C20.6603 13.4471 19.96 14.1661 19.0708 14.4102C17.4593 14.8535 10.9969 14.8535 10.9969 14.8535C10.9969 14.8535 4.53455 14.8535 2.92297 14.4102C2.03376 14.1661 1.33347 13.4471 1.09581 12.5341C0.664062 10.8792 0.664062 7.42676 0.664062 7.42676C0.664062 7.42676 0.664062 3.97415 1.09581 2.31942C1.33347 1.40641 2.03376 0.687454 2.92297 0.443449C4.53455 0 10.9969 0 10.9969 0C10.9969 0 17.4593 0 19.0708 0.443449ZM9.05859 4.51953V10.9776L14.225 7.74868L9.05859 4.51953Z"/>
  </symbol>

  <symbol id="ok" viewBox="0 0 12 20">
    <path fill-rule="evenodd" clip-rule="evenodd" d="M5.98527 10.3211C3.03669 10.3211 0.638672 8.00662 0.638672 5.16132C0.638672 2.31509 3.03669 0 5.98527 0C8.9345 0 11.3319 2.31509 11.3319 5.16132C11.3319 8.00662 8.9345 10.3211 5.98527 10.3211ZM5.98524 3.02539C7.206 3.02539 8.19899 3.9836 8.19899 5.16199C8.19899 6.33945 7.206 7.29829 5.98524 7.29829C4.76543 7.29829 3.77148 6.33945 3.77148 5.16199C3.77148 3.9836 4.76543 3.02539 5.98524 3.02539ZM11.1522 17.4198L8.1633 14.5343C9.25163 14.295 10.3012 13.8793 11.268 13.2932C11.9996 12.8479 12.22 11.9144 11.7591 11.2082C11.2984 10.5004 10.332 10.2874 9.59904 10.7326C7.40896 12.062 4.5893 12.0617 2.4005 10.7326C1.66759 10.2874 0.700835 10.5004 0.241129 11.2082C-0.219857 11.9151 -8.06638e-05 12.8479 0.731546 13.2932C1.6983 13.8787 2.74792 14.295 3.83624 14.5343L0.847033 17.4198C0.236011 18.0102 0.236011 18.9675 0.847672 19.5579C1.15382 19.8528 1.55435 20.0004 1.95487 20.0004C2.35603 20.0004 2.7572 19.8528 3.06335 19.5579L5.99945 16.7225L8.93812 19.5579C9.54914 20.1483 10.5405 20.1483 11.1522 19.5579C11.7645 18.9675 11.7645 18.0096 11.1522 17.4198Z"/>
  </symbol>
</svg>