<svg xmlns="http://www.w3.org/2000/svg" width="60" height="66" viewBox="0 0 60 66" fill="none">
  <path fill-rule="evenodd" clip-rule="evenodd" d="M25.7164 24.7656H22.6146C21.5139 24.7656 20.7277 25.6198 20.7277 26.6293C20.7277 27.7165 21.5925 28.5707 22.6146 28.5707H23.3222V37.268C23.3222 37.8115 23.165 38.2775 22.9291 38.7434L12.0006 55.9827C10.7426 58.0017 10.664 60.4866 11.8434 62.661C13.0227 64.7576 15.2241 66.0001 17.6614 66.0001H43.6854C46.1227 66.0001 48.3241 64.7576 49.5034 62.661C50.6827 60.5643 50.6041 58.0793 49.3462 55.9827L38.3391 38.6657C38.1032 38.1998 37.9459 37.7339 37.9459 37.1903V28.5707H38.6535C39.6756 28.5707 40.5405 27.7165 40.5405 26.6293C40.5405 25.6198 39.6756 24.7656 38.6535 24.7656H32.4424C32.9141 21.8147 34.0935 19.7181 35.43 18.2426C40.6191 22.2807 53.5918 14.2822 50.7614 1.31395C50.6041 0.692714 49.8965 0.382096 49.4248 0.770369C47.2234 2.2458 43.8426 3.56593 40.7763 4.42013C35.1942 5.89556 31.1058 10.2442 32.6783 14.5929C32.7569 14.8258 33.15 14.9035 33.3072 14.6705C36.1011 11.8438 39.4855 11.117 40.3893 10.9229C40.5283 10.893 40.6086 10.8758 40.6191 10.8654C41.0122 10.7878 41.4053 11.0984 41.4839 11.5643C41.5626 12.0303 41.2481 12.3409 40.7763 12.4185C40.6977 12.4185 35.6659 13.2727 32.6783 16.3789C31.5775 17.4661 31.2863 17.7917 30.5 19.5001C30.5 19.4999 30.4999 19.4996 30.4998 19.4994C30.4997 19.4996 30.4997 19.4999 30.4996 19.5001C29.6996 21.5001 28.9996 24.1668 28.9996 25.0001L25.7164 24.7656ZM26.1526 40.6848L23.6367 44.6451C26.5457 44.0239 29.612 44.2569 32.8355 45.4993C34.8797 46.2759 36.9239 46.6641 38.8894 46.6641L35.1155 40.7624C34.4079 39.6752 34.0935 38.5104 34.0935 37.268V28.5707H27.1747V37.1903C27.1747 38.4328 26.7816 39.6752 26.1526 40.6848Z" fill="#F02C38"/>
  <path fill-rule="evenodd" clip-rule="evenodd" d="M59.143 23.0381C59.6365 23.8888 59.3436 24.9766 58.4889 25.4678L2.68072 57.5395C1.82604 58.0306 0.733157 57.7392 0.239704 56.8884C-0.253748 56.0377 0.039088 54.9499 0.893774 54.4587L56.702 22.387C57.5567 21.8959 58.6496 22.1873 59.143 23.0381Z" fill="#F6F8FB"/>
  <path fill-rule="evenodd" clip-rule="evenodd" d="M59.143 20.2973C59.6365 21.1481 59.3436 22.2359 58.4889 22.7271L2.68072 54.7988C1.82604 55.2899 0.733157 54.9984 0.239704 54.1477C-0.253748 53.297 0.039088 52.2092 0.893774 51.718L56.702 19.6463C57.5567 19.1551 58.6496 19.4466 59.143 20.2973Z" fill="#F02C38"/>
</svg>