<svg xmlns="http://www.w3.org/2000/svg" width="74" height="44" viewBox="0 0 74 44" fill="none">
  <path fill-rule="evenodd" clip-rule="evenodd" d="M0.663689 0.103427C-0.0571671 0.141915 -0.25779 1.14687 0.398041 1.46333C3.98573 3.19528 6.984 8.17019 8.99992 18.2269C11.4793 30.5915 21.6115 35.4965 29.4302 33.9371C29.8993 36.6013 30.0626 38.949 30.1027 40.7038C30.1442 42.5427 31.5984 43.9995 33.3832 43.9995H33.433C35.3839 43.9995 36.8879 42.2561 36.7039 40.2562C35.4351 26.3806 27.2607 18.6802 22.039 15.1222C24.8879 16.2284 30.67 19.0295 35.1722 24.7941C36.358 26.3122 38.7461 25.5482 38.9467 23.6109L38.9522 23.5568C40.726 6.15029 20.4174 -0.961402 0.663689 0.103427ZM73.6616 16.0844C74.2192 15.8164 74.0491 14.9597 73.4333 14.9269C56.6032 14.0189 39.3012 20.0786 40.8107 34.9092C40.9394 36.1694 42.5526 36.7666 43.4548 35.5022C47.3441 30.0655 52.6737 27.4982 55.2223 26.5075C52.2766 28.516 48.2365 32.0768 45.526 37.6818C44.4205 39.9683 45.5675 42.8335 47.9529 43.5248C54.7159 45.4877 64.1148 41.4208 66.3313 30.3677C68.0484 21.8006 70.6039 17.5612 73.6616 16.0844Z" fill="#F02C38"/>
</svg>