<svg xmlns="http://www.w3.org/2000/svg" width="60" height="60" viewBox="0 0 60 60" fill="none">
  <path fill-rule="evenodd" clip-rule="evenodd" d="M45.7143 0C46.5029 0 47.1429 0.64191 47.1429 1.43284V10.0299C47.1429 10.8208 47.7829 11.4627 48.5714 11.4627C49.36 11.4627 50 10.8208 50 10.0299V5.73134H55.7143C56.8514 5.73134 57.9414 6.18412 58.7443 6.9908C59.5486 7.79606 60 8.88931 60 10.0299V14.3284H0V10.0299C0 8.88931 0.451431 7.79606 1.25572 6.9908C2.05857 6.18412 3.14857 5.73134 4.28571 5.73134H10V1.43284C10 0.64191 10.64 0 11.4286 0C12.2171 0 12.8571 0.64191 12.8571 1.43284V10.0299C12.8571 10.8208 13.4971 11.4627 14.2857 11.4627C15.0743 11.4627 15.7143 10.8208 15.7143 10.0299V5.73134H27.1429V1.43284C27.1429 0.64191 27.7829 0 28.5714 0C29.36 0 30 0.64191 30 1.43284V10.0299C30 10.8208 30.64 11.4627 31.4286 11.4627C32.2171 11.4627 32.8571 10.8208 32.8571 10.0299V5.73134H44.2857V1.43284C44.2857 0.64191 44.9257 0 45.7143 0ZM60 55.7015V17.0149H0V55.7015C0 56.842 0.451431 57.9353 1.25572 58.7405C2.05857 59.5472 3.14857 60 4.28571 60H55.7143C56.8514 60 57.9414 59.5472 58.7443 58.7405C59.5486 57.9353 60 56.842 60 55.7015Z" fill="#F02C38"/>
  <path d="M7.1031 41.8433V40.2137L10.8611 36.688C11.1808 36.3746 11.4488 36.0926 11.6653 35.8419C11.8853 35.5912 12.052 35.3457 12.1654 35.1054C12.2788 34.8617 12.3355 34.5988 12.3355 34.3167C12.3355 34.0033 12.265 33.7335 12.1241 33.5071C11.9832 33.2773 11.7908 33.1015 11.5468 32.9796C11.3028 32.8542 11.0261 32.7915 10.7168 32.7915C10.3938 32.7915 10.1119 32.8577 9.87138 32.99C9.63081 33.1223 9.44522 33.3121 9.31463 33.5594C9.18403 33.8066 9.11873 34.1008 9.11873 34.4421H7C7 33.7422 7.15637 33.1345 7.46911 32.6192C7.78185 32.1038 8.22003 31.7051 8.78366 31.4231C9.34728 31.141 9.99682 31 10.7323 31C11.4883 31 12.1465 31.1358 12.7067 31.4074C13.2703 31.6755 13.7085 32.0481 14.0212 32.5252C14.334 33.0022 14.4903 33.5489 14.4903 34.1652C14.4903 34.5692 14.4113 34.9679 14.2532 35.3613C14.0985 35.7548 13.8219 36.1918 13.4232 36.6724C13.0246 37.1494 12.4627 37.7222 11.7375 38.3908L10.1961 39.9212V39.9943H14.6295V41.8433H7.1031Z" fill="white"/>
  <path d="M20.1029 41.9896C19.3743 41.9896 18.7248 41.8538 18.1543 41.5821C17.5872 41.3105 17.137 40.9362 16.8037 40.4592C16.4703 39.9821 16.2967 39.4354 16.283 38.8191H18.4481C18.4722 39.2335 18.644 39.5695 18.9636 39.8272C19.2832 40.0848 19.663 40.2137 20.1029 40.2137C20.4534 40.2137 20.7628 40.1353 21.0308 39.9786C21.3023 39.8185 21.5137 39.5973 21.6649 39.3153C21.8195 39.0298 21.8969 38.7024 21.8969 38.3333C21.8969 37.9573 21.8178 37.6265 21.6597 37.3409C21.5051 37.0554 21.2903 36.8325 21.0154 36.6724C20.7404 36.5122 20.426 36.4304 20.072 36.4269C19.7627 36.4269 19.462 36.4913 19.1698 36.6201C18.8812 36.749 18.656 36.9248 18.4945 37.1477L16.5098 36.7873L17.0099 31.1462H23.464V32.9953H18.8502L18.577 35.6747H18.6389C18.8244 35.4101 19.1045 35.1907 19.4791 35.0166C19.8537 34.8425 20.273 34.7555 20.737 34.7555C21.3728 34.7555 21.9398 34.9069 22.4382 35.2099C22.9365 35.5128 23.33 35.9289 23.6187 36.4582C23.9073 36.984 24.05 37.5899 24.0465 38.2759C24.05 38.9967 23.885 39.6374 23.5516 40.198C23.2217 40.7551 22.7595 41.1939 22.1649 41.5142C21.5738 41.8311 20.8865 41.9896 20.1029 41.9896Z" fill="white"/>
  <path d="M28.5198 41.8433L28.5095 40.0779H28.7724C28.958 40.0779 29.1178 40.0326 29.2519 39.9421C29.3893 39.8481 29.5027 39.6966 29.5921 39.4877C29.6815 39.2787 29.7519 39.0019 29.8035 38.6572C29.855 38.309 29.8894 37.8807 29.9066 37.3723L30.0354 33.8205H36.0566V41.8433H33.9636V35.5703H32.0098L31.8861 38.0199C31.8552 38.692 31.7744 39.27 31.6438 39.754C31.5167 40.2381 31.3397 40.635 31.1128 40.9449C30.886 41.2513 30.6128 41.4777 30.2932 41.6239C29.9736 41.7702 29.6024 41.8433 29.1797 41.8433H28.5198Z" fill="white"/>
  <path d="M41.3676 42C40.5531 42 39.852 41.8329 39.2643 41.4986C38.6801 41.1608 38.2299 40.6838 37.9137 40.0674C37.5975 39.4476 37.4394 38.7146 37.4394 37.8685C37.4394 37.0432 37.5975 36.3189 37.9137 35.6956C38.2299 35.0723 38.6749 34.5866 39.2488 34.2384C39.8262 33.8902 40.5032 33.716 41.2799 33.716C41.8023 33.716 42.2886 33.8014 42.7388 33.972C43.1925 34.1391 43.5877 34.3916 43.9245 34.7293C44.2647 35.0671 44.5294 35.4919 44.7184 36.0038C44.9074 36.5122 45.0019 37.1076 45.0019 37.7901V38.4012H38.3158V37.0223H42.9347C42.9347 36.702 42.866 36.4182 42.7285 36.1709C42.591 35.9237 42.4003 35.7305 42.1563 35.5912C41.9157 35.4484 41.6356 35.377 41.316 35.377C40.9827 35.377 40.6871 35.4554 40.4294 35.6121C40.175 35.7653 39.9757 35.9725 39.8314 36.2336C39.687 36.4913 39.6131 36.7786 39.6097 37.0954V38.4065C39.6097 38.8034 39.6819 39.1464 39.8262 39.4354C39.974 39.7244 40.1819 39.9473 40.45 40.104C40.718 40.2607 41.0359 40.339 41.4037 40.339C41.6477 40.339 41.8711 40.3042 42.0738 40.2346C42.2766 40.1649 42.4501 40.0605 42.5945 39.9212C42.7388 39.7819 42.8488 39.6113 42.9244 39.4093L44.9555 39.5451C44.8524 40.0396 44.641 40.4714 44.3214 40.8405C44.0053 41.2061 43.5963 41.4916 43.0945 41.6971C42.5962 41.899 42.0206 42 41.3676 42Z" fill="white"/>
  <path d="M45.8241 35.5703V33.8205H53V35.5703H50.4482V41.8433H48.3553V35.5703H45.8241Z" fill="white"/>
</svg>