<svg xmlns="http://www.w3.org/2000/svg" width="60" height="59" viewBox="0 0 60 59" fill="none">
  <path d="M31.4785 0C32.2941 0.136325 32.8539 0.511217 33.1849 0.810252C32.256 3.6192 31.3326 7.33515 30.9384 8.97544C29.7383 9.08538 28.5731 8.62364 27.8838 8.26853C28.4196 5.18034 30.5746 1.45889 31.4785 0ZM21.0973 0.292439C22.7003 3.0706 24.7628 4.1711 26.246 4.60755C25.7091 6.02027 25.2931 7.49456 25.1875 8.86C25.1516 9.31955 25.3574 9.76371 25.7287 10.032C25.8365 10.11 27.9655 11.6206 30.5833 11.6206C31.1627 11.6206 31.766 11.5458 32.378 11.3655C32.8299 11.2325 33.174 10.8642 33.2807 10.4025C33.2894 10.3651 33.8492 7.94751 34.5723 5.30017C35.5338 5.18693 37.2413 4.84282 39.4356 3.76982C39.1459 5.07809 39.0752 6.60295 39.5478 8.19707C39.8766 9.30856 41.2705 11.0841 42.7178 12.7145C40.3046 12.2703 37.4297 12.2088 35.0906 13.5181C33.113 14.6252 31.7485 16.3524 30.8218 18.041C29.4432 14.9869 26.6848 13.3323 24.9163 12.8013C22.8789 12.1373 20.4472 12.0493 18.3106 12.1736C20.2708 10.3266 21.9805 7.83317 21.2726 5.08909C20.739 3.01893 20.8272 1.42811 21.0973 0.292439ZM50.8197 49.3308C45.1015 55.3951 37.0682 59 29.294 59C29.2319 59 29.1688 58.9989 29.1067 58.9989C21.9031 58.945 14.5264 55.3709 8.86705 49.1912C2.65338 42.4069 -0.55147 33.4138 0.0779566 24.4549C0.0942912 23.7469 0.699758 7.48137 18.7832 6.76896C18.3596 9.38112 14.264 12.1692 12.661 13.0355C12.085 13.3466 11.8269 14.0403 12.0567 14.6571C12.2875 15.2739 12.9365 15.6257 13.5703 15.475C13.6335 15.4597 20.0508 13.9777 24.1453 15.3112C24.3718 15.3805 29.7133 17.0593 28.9967 23.2093C28.9139 23.9184 29.4073 24.5626 30.1064 24.6627C30.1684 24.6715 30.2305 24.6759 30.2904 24.6759C30.9166 24.6759 31.4687 24.2174 31.5743 23.5765C31.583 23.5204 32.5424 17.9487 36.3538 15.817C40.1434 13.6951 46.5444 16.6184 46.6087 16.6481C47.188 16.9153 47.8708 16.7251 48.2291 16.1952C48.5873 15.6652 48.5144 14.9528 48.057 14.5076C45.4064 11.9284 42.353 8.49501 42.0415 7.44399C41.9773 7.22521 41.9304 7.00753 41.8945 6.79095C44.2924 6.60185 49.9682 6.59086 54.2554 10.0276C57.6236 12.7277 59.4977 17.0406 59.8234 22.8476C60.5639 36.059 55.3357 44.5419 50.8197 49.3308Z" fill="#F02C38"/>
  <path d="M17.2157 30.7418V40.7735H14.9891V32.755H14.9274L12.5156 34.1951V32.3142L15.1228 30.7418H17.2157Z" fill="#F5F8FB"/>
  <path d="M23.848 40.994C22.9636 40.9907 22.2025 40.7833 21.5648 40.3719C20.9306 39.9604 20.4421 39.3645 20.0993 38.584C19.7599 37.8035 19.5919 36.8647 19.5953 35.7675C19.5953 34.6735 19.765 33.7412 20.1044 32.9705C20.4472 32.1999 20.9358 31.6137 21.57 31.2121C22.2076 30.8071 22.967 30.6047 23.848 30.6047C24.7291 30.6047 25.4867 30.8071 26.121 31.2121C26.7586 31.617 27.2488 32.2048 27.5917 32.9754C27.9345 33.7428 28.1042 34.6735 28.1008 35.7675C28.1008 36.868 27.9293 37.8084 27.5865 38.5889C27.2471 39.3694 26.7603 39.9653 26.1261 40.3768C25.4919 40.7882 24.7325 40.994 23.848 40.994ZM23.848 39.2355C24.4514 39.2355 24.9331 38.9465 25.293 38.3685C25.653 37.7905 25.8313 36.9235 25.8278 35.7675C25.8278 35.0066 25.7456 34.3731 25.581 33.8669C25.4199 33.3608 25.1902 32.9803 24.8919 32.7256C24.5971 32.4709 24.2491 32.3436 23.848 32.3436C23.2481 32.3436 22.7682 32.6293 22.4082 33.2008C22.0482 33.7722 21.8665 34.6278 21.8631 35.7675C21.8631 36.5381 21.9437 37.1815 22.1048 37.6974C22.2693 38.2101 22.5007 38.5954 22.799 38.8534C23.0973 39.1081 23.4469 39.2355 23.848 39.2355Z" fill="#F5F8FB"/>
  <path d="M33.8177 40.994C32.9333 40.9907 32.1722 40.7833 31.5345 40.3719C30.9003 39.9604 30.4118 39.3645 30.069 38.584C29.7296 37.8035 29.5616 36.8647 29.565 35.7675C29.565 34.6735 29.7347 33.7412 30.0741 32.9705C30.4169 32.1999 30.9055 31.6137 31.5397 31.2121C32.1773 30.8071 32.9367 30.6047 33.8177 30.6047C34.6988 30.6047 35.4564 30.8071 36.0907 31.2121C36.7283 31.617 37.2185 32.2048 37.5614 32.9754C37.9042 33.7428 38.0739 34.6735 38.0704 35.7675C38.0704 36.868 37.899 37.8084 37.5562 38.5889C37.2168 39.3694 36.73 39.9653 36.0958 40.3768C35.4616 40.7882 34.7022 40.994 33.8177 40.994ZM33.8177 39.2355C34.4211 39.2355 34.9028 38.9465 35.2627 38.3685C35.6227 37.7905 35.801 36.9235 35.7975 35.7675C35.7975 35.0066 35.7153 34.3731 35.5507 33.8669C35.3896 33.3608 35.1599 32.9803 34.8616 32.7256C34.5668 32.4709 34.2188 32.3436 33.8177 32.3436C33.2178 32.3436 32.7378 32.6293 32.3779 33.2008C32.0179 33.7722 31.8362 34.6278 31.8328 35.7675C31.8328 36.5381 31.9134 37.1815 32.0745 37.6974C32.239 38.2101 32.4704 38.5954 32.7687 38.8534C33.067 39.1081 33.4166 39.2355 33.8177 39.2355Z" fill="#F5F8FB"/>
  <path d="M45.4227 38.8926V38.3636C45.4227 37.9619 45.5118 37.5929 45.6901 37.2566C45.8718 36.9169 46.1341 36.6459 46.4769 36.4434C46.8231 36.2377 47.2448 36.1348 47.7419 36.1348C48.2458 36.1348 48.6692 36.2361 49.012 36.4385C49.3583 36.641 49.6188 36.912 49.7937 37.2517C49.9719 37.588 50.0611 37.9586 50.0611 38.3636V38.8926C50.0611 39.2943 49.9719 39.6649 49.7937 40.0045C49.6154 40.3409 49.3532 40.6103 49.0069 40.8127C48.6607 41.0185 48.239 41.1213 47.7419 41.1213C47.2379 41.1213 46.8146 41.0185 46.4717 40.8127C46.1289 40.6103 45.8684 40.3409 45.6901 40.0045C45.5118 39.6649 45.4227 39.2943 45.4227 38.8926ZM46.9191 38.3636V38.8926C46.9191 39.1244 46.9774 39.3432 47.094 39.549C47.2139 39.7547 47.4299 39.8576 47.7419 39.8576C48.0539 39.8576 48.2664 39.7563 48.3795 39.5539C48.4961 39.3514 48.5544 39.131 48.5544 38.8926V38.3636C48.5544 38.1252 48.4995 37.9031 48.3898 37.6974C48.2801 37.4917 48.0641 37.3888 47.7419 37.3888C47.4333 37.3888 47.2191 37.4917 47.0991 37.6974C46.9791 37.9031 46.9191 38.1252 46.9191 38.3636ZM40.0181 33.1518V32.6228C40.0181 32.2178 40.109 31.8472 40.2906 31.5109C40.4723 31.1712 40.7346 30.9002 41.0774 30.6977C41.4237 30.4953 41.8419 30.394 42.3322 30.394C42.8395 30.394 43.2646 30.4953 43.6075 30.6977C43.9503 30.9002 44.2108 31.1712 44.3891 31.5109C44.5674 31.8472 44.6565 32.2178 44.6565 32.6228V33.1518C44.6565 33.5567 44.5656 33.9273 44.3839 34.2637C44.2057 34.6 43.9434 34.8695 43.5972 35.0719C43.2543 35.2711 42.8327 35.3707 42.3322 35.3707C41.8316 35.3707 41.4083 35.2695 41.062 35.067C40.7192 34.8613 40.4586 34.5919 40.2804 34.2588C40.1055 33.9225 40.0181 33.5534 40.0181 33.1518ZM41.5248 32.6228V33.1518C41.5248 33.3902 41.5831 33.6106 41.6996 33.8131C41.8196 34.0155 42.0305 34.1167 42.3322 34.1167C42.6476 34.1167 42.8618 34.0155 42.9749 33.8131C43.0915 33.6106 43.1498 33.3902 43.1498 33.1518V32.6228C43.1498 32.3844 43.0949 32.1623 42.9852 31.9566C42.8755 31.7509 42.6578 31.648 42.3322 31.648C42.027 31.648 41.8162 31.7525 41.6996 31.9615C41.5831 32.1705 41.5248 32.3909 41.5248 32.6228ZM40.6969 40.7735L47.9373 30.7418H49.2846L42.0442 40.7735H40.6969Z" fill="#F5F8FB"/>
</svg>