<svg xmlns="http://www.w3.org/2000/svg" width="60" height="68" viewBox="0 0 60 68" fill="none">
  <path fill-rule="evenodd" clip-rule="evenodd" d="M2 0C0.89543 0 0 0.895432 0 2V53C0 54.1046 0.89543 55 2 55H29.007C29.0023 54.8339 29 54.6672 29 54.5C29 44.835 36.835 37 46.5 37C46.6672 37 46.8339 37.0023 47 37.007V2C47 0.89543 46.1046 0 45 0H2ZM37.1557 11.6907C38.1414 11.6927 38.9389 10.897 38.937 9.91355C38.935 8.93007 38.1342 8.1312 37.1485 8.12922L9.7813 8C8.79554 7.99803 7.99803 8.79369 8 9.77717C8.00198 10.7606 8.80271 11.5595 9.78847 11.5615L37.1557 11.6907ZM37.1557 22.6907C38.1414 22.6927 38.9389 21.897 38.937 20.9135C38.935 19.9301 38.1342 19.1312 37.1485 19.1292L9.7813 19C8.79554 18.998 7.99803 19.7937 8 20.7772C8.00198 21.7606 8.80271 22.5595 9.78847 22.5615L37.1557 22.6907ZM38.937 31.9135C38.9389 32.897 38.1414 33.6927 37.1557 33.6907L9.78847 33.5615C8.80271 33.5595 8.00198 32.7606 8 31.7772C7.99803 30.7937 8.79554 29.998 9.7813 30L37.1485 30.1292C38.1342 30.1312 38.935 30.9301 38.937 31.9135ZM19.1557 44.6907C20.1414 44.6927 20.9389 43.897 20.937 42.9135C20.935 41.9301 20.1342 41.1312 19.1485 41.1292L9.7813 41C8.79554 40.998 7.99803 41.7937 8 42.7772C8.00198 43.7606 8.80271 44.5595 9.78847 44.5615L19.1557 44.6907ZM60 54.5C60 61.9558 53.9558 68 46.5 68C39.0442 68 33 61.9558 33 54.5C33 47.0442 39.0442 41 46.5 41C53.9558 41 60 47.0442 60 54.5ZM52.9142 49.5858C53.6953 50.3668 53.6953 51.6332 52.9142 52.4142L45.9142 59.4142C45.1332 60.1953 43.8668 60.1953 43.0858 59.4142L39.5858 55.9142C38.8047 55.1332 38.8047 53.8668 39.5858 53.0858C40.3668 52.3047 41.6332 52.3047 42.4142 53.0858L44.5 55.1716L50.0858 49.5858C50.8668 48.8047 52.1332 48.8047 52.9142 49.5858Z" fill="#F02C38"/>
</svg>