<svg xmlns="http://www.w3.org/2000/svg" width="42" height="42" viewBox="0 0 42 42" fill="none">
  <path opacity="0.3" d="M1 21C1 9.9543 9.9543 1 21 1C32.0457 1 41 9.9543 41 21C41 32.0457 32.0457 41 21 41C9.9543 41 1 32.0457 1 21Z" stroke="white"/>
  <path fill-rule="evenodd" clip-rule="evenodd" d="M20.9863 21.3211C18.0377 21.3211 15.6396 19.0066 15.6396 16.1613C15.6396 13.3151 18.0377 11 20.9863 11C23.9355 11 26.3329 13.3151 26.3329 16.1613C26.3329 19.0066 23.9355 21.3211 20.9863 21.3211ZM20.9862 14.0254C22.207 14.0254 23.2 14.9836 23.2 16.162C23.2 17.3395 22.207 18.2983 20.9862 18.2983C19.7664 18.2983 18.7725 17.3395 18.7725 16.162C18.7725 14.9836 19.7664 14.0254 20.9862 14.0254ZM26.1522 28.4198L23.1633 25.5343C24.2516 25.295 25.3012 24.8793 26.268 24.2932C26.9996 23.8479 27.22 22.9144 26.7591 22.2082C26.2984 21.5004 25.332 21.2874 24.599 21.7326C22.409 23.062 19.5893 23.0617 17.4005 21.7326C16.6676 21.2874 15.7008 21.5004 15.2411 22.2082C14.7801 22.9151 14.9999 23.8479 15.7315 24.2932C16.6983 24.8787 17.7479 25.295 18.8362 25.5343L15.847 28.4198C15.236 29.0102 15.236 29.9675 15.8477 30.5579C16.1538 30.8528 16.5543 31.0004 16.9549 31.0004C17.356 31.0004 17.7572 30.8528 18.0633 30.5579L20.9995 27.7225L23.9381 30.5579C24.5491 31.1483 25.5405 31.1483 26.1522 30.5579C26.7645 29.9675 26.7645 29.0096 26.1522 28.4198Z" fill="white"/>
</svg>