<svg xmlns="http://www.w3.org/2000/svg" width="42" height="42" viewBox="0 0 42 42" fill="none">
  <path opacity="0.3" d="M1 21C1 9.9543 9.9543 1 21 1C32.0457 1 41 9.9543 41 21C41 32.0457 32.0457 41 21 41C9.9543 41 1 32.0457 1 21Z" stroke="white"/>
  <path d="M30.9009 16.3194C30.6632 15.4064 29.9629 14.6875 29.0737 14.4434C27.4623 14 20.9999 14 20.9999 14C20.9999 14 14.5375 14 12.9259 14.4434C12.0367 14.6875 11.3364 15.4064 11.0987 16.3194C10.667 17.9742 10.667 21.4268 10.667 21.4268C10.667 21.4268 10.667 24.8792 11.0987 26.5341C11.3364 27.4471 12.0367 28.1661 12.9259 28.4102C14.5375 28.8535 20.9999 28.8535 20.9999 28.8535C20.9999 28.8535 27.4623 28.8535 29.0737 28.4102C29.9629 28.1661 30.6632 27.4471 30.9009 26.5341C31.3328 24.8792 31.3328 21.4268 31.3328 21.4268C31.3328 21.4268 31.3328 17.9742 30.9009 16.3194Z" fill="white"/>
  <path d="M19.0615 24.9778V18.5197L24.228 21.7489L19.0615 24.9778Z" fill="#F02C38"/>
</svg>