<svg xmlns="http://www.w3.org/2000/svg" width="42" height="42" viewBox="0 0 42 42" fill="none">
  <path opacity="0.3" d="M1 21C1 9.9543 9.9543 1 21 1C32.0457 1 41 9.9543 41 21C41 32.0457 32.0457 41 21 41C9.9543 41 1 32.0457 1 21Z" stroke="white"/>
  <path fill-rule="evenodd" clip-rule="evenodd" d="M31.5058 15.9021C31.6615 15.3932 31.5058 15.0231 30.8164 15.0231H28.5256C27.9473 15.0231 27.6804 15.347 27.5248 15.694C27.5248 15.694 26.346 18.6548 24.7002 20.5747C24.1664 21.1299 23.9218 21.3149 23.6327 21.3149C23.477 21.3149 23.2768 21.1299 23.2768 20.621V15.879C23.2768 15.2776 23.0989 15 22.6096 15H19.0066C18.6508 15 18.4284 15.2776 18.4284 15.5552C18.4284 16.1335 19.2513 16.2722 19.3402 17.8915V21.4075C19.3402 22.1708 19.2068 22.3096 18.9177 22.3096C18.1392 22.3096 16.2488 19.3256 15.1145 15.9253C14.8921 15.2544 14.6697 15 14.0914 15H11.7784C11.1112 15 11 15.3238 11 15.6708C11 16.2954 11.7784 19.4413 14.6252 23.605C16.5157 26.4502 19.2068 27.9769 21.631 27.9769C23.0989 27.9769 23.2768 27.6299 23.2768 27.0516V24.9004C23.2768 24.2064 23.4103 24.0907 23.8773 24.0907C24.2109 24.0907 24.8114 24.2758 26.1681 25.6406C27.7249 27.2598 27.9918 28 28.8592 28H31.15C31.8172 28 32.1286 27.653 31.9506 26.9822C31.7505 26.3114 30.9943 25.3399 30.0157 24.1833C29.4819 23.5356 28.6813 22.8185 28.4366 22.4715C28.103 22.0089 28.192 21.8238 28.4366 21.4075C28.4144 21.4075 31.2167 17.29 31.5058 15.9021Z" fill="white"/>
</svg>