<svg width="7" height="5" viewBox="0 0 7 5" fill="none" xmlns="http://www.w3.org/2000/svg">
<path d="M4.09391 4.00325C3.84368 4.25348 3.43798 4.25348 3.18775 4.00325L0.469262 1.28476C0.219032 1.03453 0.219032 0.628824 0.469262 0.378594C0.719492 0.128364 1.1252 0.128364 1.37542 0.378594L4.09391 3.09708C4.34414 3.34731 4.34414 3.75302 4.09391 4.00325Z" fill="#F02C38"/>
<path d="M6.81233 0.37859C7.06256 0.62882 7.06256 1.03452 6.81233 1.28475L4.09391 4.00325C3.84368 4.25348 3.43798 4.25348 3.18775 4.00325C2.93752 3.75302 2.93745 3.34731 3.18768 3.09708L5.90616 0.37859C6.15639 0.12836 6.5621 0.12836 6.81233 0.37859Z" fill="#F02C38"/>
</svg>
