<svg xmlns="http://www.w3.org/2000/svg" width="169" height="48" viewBox="0 0 169 48" fill="none">
  <path d="M53.9521 0.985352H58.6693L64.0489 17.9068L69.3932 0.985352H74.1405L66.7185 23.0004H61.339L53.9521 0.985352Z" fill="#043E44"/>
  <path d="M90.783 15.1421C90.783 19.8292 87.3254 23.4472 83.1102 23.4472C80.8118 23.4472 79.1457 22.5992 78.0167 21.1489V29.2935H73.9619V7.27852H78.0167V9.13528C79.1507 7.69005 80.8168 6.83691 83.1102 6.83691C87.3254 6.83691 90.783 10.455 90.783 15.1421ZM86.7232 15.1421C86.7232 12.5025 84.8666 10.7059 82.3523 10.7059C79.8683 10.7059 78.0116 12.4974 78.0116 15.1421C78.0116 17.7817 79.8683 19.5781 82.3523 19.5781C84.8715 19.5732 86.7232 17.7817 86.7232 15.1421Z" fill="#043E44"/>
  <path d="M101.634 6.96191V11.4883C99.5264 11.2375 96.8516 12.1808 96.8516 15.4828V23.0002H92.7969V7.27307H96.8516V9.97788C97.6696 7.84004 99.6517 6.96191 101.634 6.96191Z" fill="#043E44"/>
  <path d="M101.728 15.1421C101.728 10.455 105.406 6.83691 110.033 6.83691C114.655 6.83691 118.368 10.455 118.368 15.1421C118.368 19.8292 114.655 23.4472 110.033 23.4472C105.406 23.4422 101.728 19.8241 101.728 15.1421ZM114.308 15.1421C114.308 12.5928 112.451 10.8013 110.033 10.8013C107.644 10.8013 105.787 12.5928 105.787 15.1421C105.787 17.6913 107.644 19.4828 110.033 19.4828C112.451 19.4778 114.308 17.6864 114.308 15.1421Z" fill="#043E44"/>
  <path d="M130.156 23.0004L124.431 15.8595V23.0004H120.376V0.985352H124.431V14.1935L129.84 7.27323H134.683L128.36 15.0415L134.869 23.0004H130.156Z" fill="#043E44"/>
  <path d="M135.723 20.737C135.723 19.2566 136.917 18.0623 138.397 18.0623C139.878 18.0623 141.072 19.2566 141.072 20.737C141.072 22.2174 139.878 23.4117 138.397 23.4117C136.917 23.4117 135.723 22.2174 135.723 20.737Z" fill="#043E44"/>
  <path d="M152.45 6.96191V11.4883C150.343 11.2375 147.669 12.1808 147.669 15.4828V23.0002H143.608V7.27307H147.669V9.97788C148.492 7.84004 150.468 6.96191 152.45 6.96191Z" fill="#043E44"/>
  <path d="M168.399 7.27832V23.0054H164.344V21.2441C163.401 22.6593 161.765 23.447 159.657 23.447C156.326 23.447 153.711 21.1186 153.711 16.9385V7.2834H157.766V16.4366C157.766 18.5743 159.054 19.6785 160.881 19.6785C162.863 19.6785 164.339 18.5142 164.339 15.7792V7.28834H168.399V7.27832Z" fill="#043E44"/>
  <path d="M66.7451 44.0319H64.246V33.7345H59.7697V44.0319H57.2656V31.3408H66.7451V44.0319Z" fill="#043E44"/>
  <path d="M73.343 42.1653C74.2513 42.1653 74.974 41.7838 75.3754 41.257L77.2622 42.3459C76.4092 43.5805 75.0493 44.2879 73.3079 44.2879C70.2618 44.2879 68.3398 42.2005 68.3398 39.5006C68.3398 36.8007 70.2819 34.7131 73.1273 34.7131C75.8121 34.7131 77.714 36.8359 77.714 39.5006C77.714 39.8469 77.6788 40.153 77.6236 40.459H70.7888C71.115 41.6585 72.1086 42.1653 73.343 42.1653ZM75.3754 38.6475C75.0844 37.3427 74.1058 36.8158 73.1273 36.8158C71.8777 36.8158 71.0246 37.4883 70.7537 38.6475H75.3754Z" fill="#043E44"/>
  <path d="M88.8671 39.5006C88.8671 42.2005 86.8748 44.2879 84.446 44.2879C83.1212 44.2879 82.1627 43.7962 81.5103 42.9631V47.6602H79.1719V34.9691H81.5103V36.0381C82.1627 35.205 83.1212 34.7131 84.446 34.7131C86.8698 34.7182 88.8671 36.8007 88.8671 39.5006ZM86.5286 39.5006C86.5286 37.9801 85.4596 36.9463 84.0094 36.9463C82.5792 36.9463 81.5053 37.9801 81.5053 39.5006C81.5053 41.0211 82.5742 42.0549 84.0094 42.0549C85.4596 42.0598 86.5286 41.0262 86.5286 39.5006Z" fill="#043E44"/>
  <path d="M94.8676 42.1653C95.7758 42.1653 96.4985 41.7838 96.8998 41.257L98.7868 42.3459C97.9337 43.5805 96.5737 44.2879 94.8324 44.2879C91.7862 44.2879 89.8643 42.2005 89.8643 39.5006C89.8643 36.8007 91.8064 34.7131 94.6517 34.7131C97.3365 34.7131 99.2384 36.8359 99.2384 39.5006C99.2384 39.8469 99.2033 40.153 99.1481 40.459H92.3133C92.6344 41.6585 93.633 42.1653 94.8676 42.1653ZM96.8949 38.6475C96.6038 37.3427 95.6253 36.8158 94.6468 36.8158C93.3972 36.8158 92.5441 37.4883 92.273 38.6475H96.8949Z" fill="#043E44"/>
  <path d="M106.325 44.0326L103.028 39.9177V44.0326H100.689V34.9697H103.028V38.9591L106.144 34.9697H108.934L105.291 39.4459L109.045 44.0326H106.325Z" fill="#043E44"/>
  <path d="M119.723 39.5006C119.723 42.2005 117.73 44.2879 115.301 44.2879C113.977 44.2879 113.018 43.7962 112.366 42.9631V47.6602H110.027V34.9691H112.366V36.0381C113.018 35.205 113.977 34.7131 115.301 34.7131C117.725 34.7182 119.723 36.8007 119.723 39.5006ZM117.384 39.5006C117.384 37.9801 116.315 36.9463 114.865 36.9463C113.435 36.9463 112.366 37.9801 112.366 39.5006C112.366 41.0211 113.435 42.0549 114.865 42.0549C116.315 42.0598 117.384 41.0262 117.384 39.5006Z" fill="#043E44"/>
  <path d="M125.726 42.1658C126.634 42.1658 127.357 41.7843 127.758 41.2574L129.645 42.3463C128.792 43.5808 127.432 44.2884 125.691 44.2884C122.645 44.2884 120.723 42.2008 120.723 39.5011C120.723 36.8012 122.665 34.7136 125.51 34.7136C128.195 34.7136 130.097 36.8363 130.097 39.5011C130.097 39.8474 130.062 40.1534 130.006 40.4595H123.172C123.498 41.659 124.491 42.1658 125.726 42.1658ZM122.444 32.7967C122.444 32.1243 123.006 31.5623 123.678 31.5623C124.351 31.5623 124.893 32.1243 124.893 32.7967C124.893 33.4691 124.351 34.0111 123.678 34.0111C123.006 34.0111 122.444 33.4641 122.444 32.7967ZM127.758 38.6479C127.467 37.3432 126.489 36.8163 125.51 36.8163C124.261 36.8163 123.407 37.4887 123.136 38.6479H127.758ZM125.886 32.7967C125.886 32.1243 126.449 31.5623 127.121 31.5623C127.793 31.5623 128.335 32.1243 128.335 32.7967C128.335 33.4691 127.793 34.0111 127.121 34.0111C126.449 34.0111 125.886 33.4641 125.886 32.7967Z" fill="#043E44"/>
  <path d="M130.999 39.5003C130.999 36.8005 133.031 34.7129 135.786 34.7129C137.563 34.7129 139.103 35.6564 139.846 37.0515L137.834 38.2307C137.473 37.488 136.69 37.0163 135.766 37.0163C134.371 37.0163 133.337 38.05 133.337 39.5003C133.337 40.9306 134.371 41.9643 135.766 41.9643C136.71 41.9643 137.488 41.5127 137.849 40.77L139.881 41.9292C139.103 43.3443 137.563 44.2877 135.786 44.2877C133.031 44.2877 130.999 42.2002 130.999 39.5003Z" fill="#043E44"/>
  <path d="M148.514 37.2178H145.683V44.0326H143.345V37.2178H140.479V34.9697H148.508V37.2178H148.514Z" fill="#043E44"/>
  <path d="M148.749 39.5003C148.749 36.8005 150.872 34.7129 153.536 34.7129C156.202 34.7129 158.339 36.7955 158.339 39.5003C158.339 42.2002 156.202 44.2877 153.536 44.2877C150.872 44.2877 148.749 42.2002 148.749 39.5003ZM156.001 39.5003C156.001 38.03 154.931 37.0012 153.536 37.0012C152.161 37.0012 151.088 38.0351 151.088 39.5003C151.088 40.9656 152.157 42.0044 153.536 42.0044C154.931 42.0044 156.001 40.9707 156.001 39.5003Z" fill="#043E44"/>
  <path d="M165.444 44.0326L162.142 39.9177V44.0326H159.804V34.9697H162.142V38.9591L165.259 34.9697H168.048L164.405 39.4459L168.159 44.0326H165.444Z" fill="#043E44"/>
  <path d="M34.5462 0.799805H9.09626C4.31175 0.799805 0.399414 4.7121 0.399414 9.49659V34.9466C0.399414 39.7311 4.31175 43.6435 9.09626 43.6435H34.5462C39.3307 43.6435 43.2431 39.7311 43.2431 34.9466V9.49659C43.2431 4.71704 39.3307 0.799805 34.5462 0.799805Z" fill="#043E44"/>
  <path d="M22.0294 15.7246L15.5352 22.2238L22.0294 28.723C25.6166 32.3102 31.431 32.3102 35.0132 28.723C38.6004 25.136 38.6004 19.3167 35.0132 15.7295C31.426 12.1375 25.6117 12.1375 22.0294 15.7246Z" fill="white"/>
  <path d="M10.2797 22.2245L3.78544 15.7253C3.30748 15.2472 2.7901 14.8432 2.24316 14.4983V29.9505C2.7901 29.6056 3.30748 29.1967 3.78544 28.7188L10.2797 22.2245Z" fill="white"/>
  <path d="M19.3987 31.3537L12.9092 24.8545L6.41492 31.3537C4.24194 33.5267 3.40428 36.5424 3.86252 39.3609C5.11901 40.8489 7.00129 41.7998 9.10035 41.7998H21.2021C22.8232 38.3852 22.2221 34.1771 19.3987 31.3537Z" fill="white"/>
  <path d="M6.41438 13.0937L12.9038 19.593L19.3981 13.0937C22.2215 10.2703 22.8128 6.05747 21.1916 2.64282H9.09488C6.99582 2.64282 5.11354 3.59379 3.85705 5.08674C3.40374 7.90026 4.24632 10.9257 6.41438 13.0937Z" fill="white"/>
</svg>