<svg xmlns="http://www.w3.org/2000/svg" width="193" height="24" viewBox="0 0 193 24" fill="none">
  <path d="M6.46091 22.7911L0.600586 1.18723H4.44478L8.94748 17.7801L13.7732 1.18579L17.3566 1.18723L22.1992 17.8683L26.7221 1.19131L30.5662 1.18579L24.7034 22.7873L20.2476 22.7827L15.5664 6.64924L10.8808 22.7869L6.46091 22.7911Z" fill="#BE11A5"/>
  <path d="M33.2178 1.19824H36.8771V22.7769H33.2178V1.19824Z" fill="#BE11A5"/>
  <path d="M44.6998 19.392H53.6084V22.7769H41.1162V1.19824H44.6998V19.392Z" fill="#BE11A5"/>
  <path d="M64.8646 1.22312C67.8677 1.22312 70.3662 2.26848 72.3346 4.33425C74.3283 6.40001 75.3378 8.96361 75.3378 12C75.3378 15.0116 74.3283 17.5751 72.3346 19.6658C70.3662 21.7316 67.8677 22.7769 64.8646 22.7769H56.2588V1.19824H64.8646V1.22312ZM64.8646 19.4169C66.9339 19.4169 68.6248 18.72 69.8866 17.3263C71.199 15.9325 71.8551 14.1405 71.8551 12.0249C71.8551 9.85961 71.199 8.11737 69.8866 6.72361C68.5996 5.32977 66.9087 4.63289 64.8646 4.63289H59.8677V19.4169H64.8646Z" fill="#BE11A5"/>
  <path d="M94.6438 16.6125C94.6438 18.3805 94.0134 19.8497 92.7262 21.0201C91.439 22.1905 89.9246 22.7881 88.0574 22.7881H78.6943V1.19824H87.3758C89.1678 1.19824 90.6814 1.79592 91.9182 2.91648C93.1806 4.06193 93.7862 5.48137 93.7862 7.17465C93.7862 9.06721 93.0286 10.5115 91.5654 11.5823C93.483 12.5784 94.6438 14.3713 94.6438 16.6125ZM82.303 4.53513V10.2127H87.4006C88.991 10.2127 90.2022 8.96761 90.2022 7.37393C90.2022 5.78017 88.991 4.53513 87.4006 4.53513H82.303ZM88.0822 19.4513C89.7478 19.4513 91.0606 18.1315 91.0606 16.4382C91.0606 14.7448 89.7478 13.4251 88.0822 13.4251H82.303V19.4762H88.0822V19.4513Z" fill="#BE11A5"/>
  <path d="M101.635 19.4015H111.326V22.7881H98.0518V1.19824H111.175V4.58489H101.635V10.1878H110.393V13.5495H101.635V19.4015Z" fill="#BE11A5"/>
  <path d="M127.023 22.7881L122.379 14.9191H118.139V22.7881H114.556V1.19824H123.312C125.281 1.19824 126.947 1.87056 128.284 3.24016C129.647 4.56001 130.354 6.20353 130.354 8.14585C130.354 10.8851 128.612 13.4001 126.013 14.3962L130.984 22.7881H127.023ZM118.139 4.53504V11.7566H123.288C125.205 11.7566 126.72 10.1629 126.72 8.14585C126.72 6.15369 125.18 4.53504 123.288 4.53504H118.139Z" fill="#BE11A5"/>
  <path d="M146.178 22.7876L141.56 14.9145H137.32V22.7876H133.736V1.18652H142.493C144.462 1.18652 146.128 1.85924 147.465 3.22956C148.828 4.55005 149.535 6.19437 149.535 8.13773C149.535 10.8784 147.793 13.3948 145.194 14.3913L150.165 22.7876H146.178ZM137.32 4.52509V11.7504H142.468C144.386 11.7504 145.9 10.1558 145.9 8.13773C145.9 6.14461 144.361 4.52509 142.468 4.52509H137.32Z" fill="#BE11A5"/>
  <path d="M152.789 1.18848H156.373V22.7871H152.789V1.18848Z" fill="#BE11A5"/>
  <path d="M164.196 19.4015H173.888V22.788H160.612V1.19824H173.736V4.58489H164.196V10.1878H172.953V13.5495H164.196V19.4015Z" fill="#BE11A5"/>
  <path d="M176.387 17.8736L179.491 16.0816C180.374 18.5207 182.166 19.7153 184.916 19.7153C187.642 19.7153 188.98 18.5705 188.98 16.8781C188.98 15.9821 188.601 15.3349 187.895 14.8869C187.188 14.4141 185.876 13.8913 184.008 13.3438C181.913 12.7216 180.879 12.3233 179.415 11.3776C178.002 10.3821 177.295 8.96333 177.295 7.02205C177.295 5.10557 177.976 3.61229 179.364 2.49229C180.728 1.34733 182.393 0.799805 184.336 0.799805C187.844 0.799805 190.544 2.59181 191.958 5.55357L188.929 7.27093C188.02 5.27981 186.481 4.25933 184.336 4.25933C182.241 4.25933 180.904 5.30469 180.904 6.94733C180.904 8.54029 181.964 9.28693 185.32 10.3073C186.153 10.5812 186.759 10.7803 187.137 10.9296C187.541 11.0541 188.071 11.2781 188.752 11.5518C189.46 11.8256 190.015 12.1492 190.343 12.4229C191.504 13.3189 192.74 14.7873 192.588 16.8532C192.588 18.7945 191.882 20.3625 190.444 21.5073C189.03 22.6523 187.163 23.1998 184.841 23.1998C180.601 23.1749 177.522 21.1838 176.387 17.8736Z" fill="#BE11A5"/>
</svg>