<svg xmlns="http://www.w3.org/2000/svg" width="201" height="38" viewBox="0 0 201 38" fill="none">
  <path d="M94.5631 31.9072H98.5271L104.068 11.3216V31.9072H108.527V4.69995H102.401L96.8604 24.6549L91.3199 4.69995H85.0586V31.9072H88.8874V11.3216L94.5631 31.9072ZM127.176 18.4387C127.176 13.6189 124.788 11.8171 119.833 11.8171C116.725 11.8171 114.293 12.763 112.851 13.6189V17.4477C114.068 16.5018 116.815 15.5108 119.248 15.5108C121.545 15.5108 122.491 16.3666 122.491 18.3936V19.4747H121.77C114.653 19.4747 111.41 21.8621 111.41 25.8711C111.41 29.8801 113.797 32.1324 117.446 32.1324C120.194 32.1324 121.41 31.2765 122.266 30.3306H122.491C122.491 30.8261 122.716 31.5468 122.851 31.9072H127.446C127.311 30.3306 127.221 28.6639 127.221 27.0873C127.176 27.0873 127.176 18.4387 127.176 18.4387ZM122.491 27.2225C121.905 28.0783 120.824 28.799 119.113 28.799C117.176 28.799 116.23 27.5828 116.23 25.9162C116.23 23.6189 117.806 22.8081 121.905 22.8081H122.626V27.2675H122.491V27.2225ZM135.239 12.1774H130.914V37.5828H135.599V29.6549C136.815 31.4567 138.482 32.3126 140.554 32.3126C145.149 32.3126 148.257 28.709 148.257 22.0873C148.257 15.4657 145.239 11.8621 140.779 11.8621C138.617 11.8621 136.815 12.8081 135.464 14.745C135.509 14.7 135.239 12.1774 135.239 12.1774ZM139.248 28.6639C136.86 28.6639 135.509 26.6369 135.509 22.1774C135.509 17.5828 136.815 15.5558 139.473 15.5558C141.996 15.5558 143.302 17.5828 143.302 22.0423C143.302 26.6369 141.996 28.6639 139.248 28.6639ZM162.806 31.9072H168.122L160.644 21.3216L167.266 12.1774H162.581L155.959 21.3216V12.1774H151.275V31.9072H155.959V22.2675L162.806 31.9072ZM183.752 30.6009V26.772C182.311 27.718 179.923 28.5738 177.626 28.5738C174.248 28.5738 172.941 26.9972 172.671 23.6189H183.842V21.0963C183.842 14.2495 180.824 11.727 176.14 11.727C170.464 11.727 167.716 16.0513 167.716 22.0873C167.716 28.9342 171.095 32.3126 176.996 32.3126C180.284 32.2675 182.446 31.5468 183.752 30.6009ZM176.185 15.5558C178.482 15.5558 179.203 17.4927 179.203 19.8801V20.2405H172.671C172.806 17.1324 174.023 15.5558 176.185 15.5558ZM200.599 15.9162V12.1774H184.968V15.9162H190.509V31.9072H195.194V15.9162H200.599Z" fill="black"/>
  <path d="M57.2669 36.7265C67.2669 36.7265 75.33 28.6634 75.33 18.6634C75.33 8.6634 67.2669 0.600342 57.2669 0.600342C47.2669 0.600342 39.2039 8.6634 39.2039 18.6634C39.1138 28.6634 47.312 36.7265 57.2669 36.7265Z" fill="#FED42B"/>
  <path d="M18.6627 36.7265C28.6386 36.7265 36.7257 28.6394 36.7257 18.6634C36.7257 8.68745 28.6386 0.600342 18.6627 0.600342C8.68672 0.600342 0.599609 8.68745 0.599609 18.6634C0.599609 28.6394 8.68672 36.7265 18.6627 36.7265Z" fill="#FC3F1D"/>
  <path d="M21.2754 10.7353H19.4736C16.3655 10.7353 14.7889 12.3119 14.7889 14.6993C14.7889 17.3569 15.87 18.6632 18.1673 20.2398L19.9691 21.5461L14.7889 29.6092H10.5547L15.5096 22.2668C12.6268 20.2398 11.0502 18.3029 11.0502 14.9245C11.0502 10.6903 13.9331 7.80737 19.4736 7.80737H25.0141V29.474H21.4105V10.6903H21.2754V10.7353Z" fill="white"/>
  <mask id="mask0_283_3649" style="mask-type:luminance" maskUnits="userSpaceOnUse" x="39" y="0" width="37" height="37">
    <path d="M57.265 36.7277C67.265 36.7277 75.328 28.6646 75.328 18.6646C75.328 8.66462 67.265 0.601562 57.265 0.601562C47.265 0.601562 39.2019 8.66462 39.2019 18.6646C39.1118 28.6646 47.31 36.7277 57.265 36.7277Z" fill="white"/>
  </mask>
  <g mask="url(#mask0_283_3649)">
    <path d="M48.3911 10.5114L32.4902 31.3222L36.7245 36.142L48.5263 20.5113L47.3101 29.0699L53.9317 31.3672L61.9947 18.4843C61.6344 20.8717 61.0488 26.4122 66.3191 28.124C74.6073 30.6465 81.8596 15.7366 85.1929 8.169L80.3731 5.64648C76.6344 13.4843 70.8686 22.133 68.5713 21.5474C66.274 20.9618 68.3461 13.6195 69.6524 8.88973V8.75459L62.3101 6.23207L53.5263 20.5564L54.7425 12.7186L48.3911 10.5114Z" fill="black"/>
  </g>
</svg>