<svg width="228" height="64" viewBox="0 0 228 64" fill="none" xmlns="http://www.w3.org/2000/svg">
<path d="M73.1077 0.930664H79.475L86.7364 23.7747L93.9503 0.930664H100.358L90.3399 30.6509H83.0785L73.1077 0.930664Z" fill="#043E44"/>
<path d="M122.823 20.042C122.823 26.3696 118.156 31.254 112.466 31.254C109.363 31.254 107.114 30.1091 105.59 28.1512V39.1465H100.117V9.42624H105.59V11.9329C107.121 9.98181 109.37 8.83008 112.466 8.83008C118.156 8.83008 122.823 13.7145 122.823 20.042ZM117.343 20.042C117.343 16.4786 114.836 14.0532 111.443 14.0532C108.09 14.0532 105.583 16.4717 105.583 20.042C105.583 23.6055 108.09 26.0307 111.443 26.0307C114.843 26.0241 117.343 23.6055 117.343 20.042Z" fill="#043E44"/>
<path d="M137.469 8.99805V15.1087C134.624 14.77 131.014 16.0435 131.014 20.5012V30.6497H125.541V9.4181H131.014V13.0696C132.118 10.1835 134.794 8.99805 137.469 8.99805Z" fill="#043E44"/>
<path d="M137.596 20.042C137.596 13.7145 142.561 8.83008 148.806 8.83008C155.045 8.83008 160.057 13.7145 160.057 20.042C160.057 26.3696 155.045 31.254 148.806 31.254C142.561 31.2472 137.596 26.3627 137.596 20.042ZM154.577 20.042C154.577 16.6006 152.071 14.182 148.806 14.182C145.582 14.182 143.076 16.6006 143.076 20.042C143.076 23.4835 145.582 25.9021 148.806 25.9021C152.071 25.8952 154.577 23.4768 154.577 20.042Z" fill="#043E44"/>
<path d="M175.969 30.6509L168.241 21.0107V30.6509H162.768V0.930664H168.241V18.7616L175.543 9.41931H182.079L173.544 19.9065L182.33 30.6509H175.969Z" fill="#043E44"/>
<path d="M183.483 27.5948C183.483 25.5965 185.095 23.9844 187.094 23.9844C189.092 23.9844 190.704 25.5965 190.704 27.5948C190.704 29.593 189.092 31.2052 187.094 31.2052C185.095 31.2052 183.483 29.593 183.483 27.5948Z" fill="#043E44"/>
<path d="M206.062 8.99805V15.1087C203.217 14.77 199.608 16.0435 199.608 20.5012V30.6497H194.127V9.4181H199.608V13.0696C200.719 10.1835 203.387 8.99805 206.062 8.99805Z" fill="#043E44"/>
<path d="M227.59 9.42578V30.6574H222.117V28.2796C220.844 30.1901 218.635 31.2536 215.79 31.2536C211.293 31.2536 207.764 28.1102 207.764 22.467V9.43264H213.237V21.7895C213.237 24.6754 214.976 26.166 217.442 26.166C220.118 26.166 222.109 24.5942 222.109 20.9019V9.43931H227.59V9.42578Z" fill="#043E44"/>
<path d="M90.3756 59.0431H87.0023V45.1416H80.9601V59.0431H77.5801V41.9102H90.3756V59.0431Z" fill="#043E44"/>
<path d="M99.2819 56.5224C100.508 56.5224 101.484 56.0074 102.025 55.2961L104.572 56.7661C103.421 58.4328 101.585 59.3879 99.2345 59.3879C95.1229 59.3879 92.5286 56.5698 92.5286 52.925C92.5286 49.2802 95.1499 46.4619 98.9907 46.4619C102.615 46.4619 105.182 49.3276 105.182 52.925C105.182 53.3925 105.135 53.8057 105.06 54.2189H95.8343C96.2745 55.8381 97.6156 56.5224 99.2819 56.5224ZM102.025 51.7732C101.633 50.0118 100.312 49.3006 98.9907 49.3006C97.3041 49.3006 96.1525 50.2083 95.7868 51.7732H102.025Z" fill="#043E44"/>
<path d="M120.237 52.925C120.237 56.5698 117.547 59.3879 114.269 59.3879C112.481 59.3879 111.187 58.724 110.306 57.5994V63.9404H107.15V46.8075H110.306V48.2506C111.187 47.1259 112.481 46.4619 114.269 46.4619C117.541 46.4688 120.237 49.2802 120.237 52.925ZM117.08 52.925C117.08 50.8723 115.637 49.4767 113.68 49.4767C111.749 49.4767 110.3 50.8723 110.3 52.925C110.3 54.9776 111.742 56.3733 113.68 56.3733C115.637 56.38 117.08 54.9845 117.08 52.925Z" fill="#043E44"/>
<path d="M128.336 56.5224C129.562 56.5224 130.537 56.0074 131.079 55.2961L133.626 56.7661C132.474 58.4328 130.639 59.3879 128.288 59.3879C124.177 59.3879 121.582 56.5698 121.582 52.925C121.582 49.2802 124.204 46.4619 128.044 46.4619C131.668 46.4619 134.236 49.3276 134.236 52.925C134.236 53.3925 134.188 53.8057 134.114 54.2189H124.888C125.322 55.8381 126.669 56.5224 128.336 56.5224ZM131.072 51.7732C130.679 50.0118 129.359 49.3006 128.038 49.3006C126.351 49.3006 125.2 50.2083 124.834 51.7732H131.072Z" fill="#043E44"/>
<path d="M143.801 59.0435L139.351 53.4884V59.0435H136.194V46.8086H139.351V52.1943L143.557 46.8086H147.323L142.406 52.8514L147.472 59.0435H143.801Z" fill="#043E44"/>
<path d="M161.886 52.925C161.886 56.5698 159.197 59.3879 155.918 59.3879C154.13 59.3879 152.836 58.724 151.956 57.5994V63.9404H148.799V46.8075H151.956V48.2506C152.836 47.1259 154.13 46.4619 155.918 46.4619C159.19 46.4688 161.886 49.2802 161.886 52.925ZM158.729 52.925C158.729 50.8723 157.286 49.4767 155.329 49.4767C153.398 49.4767 151.956 50.8723 151.956 52.925C151.956 54.9776 153.398 56.3733 155.329 56.3733C157.286 56.38 158.729 54.9845 158.729 52.925Z" fill="#043E44"/>
<path d="M169.989 56.5247C171.215 56.5247 172.191 56.0097 172.733 55.2985L175.28 56.7685C174.128 58.435 172.292 59.3902 169.942 59.3902C165.83 59.3902 163.236 56.572 163.236 52.9273C163.236 49.2825 165.857 46.4643 169.698 46.4643C173.322 46.4643 175.889 49.33 175.889 52.9273C175.889 53.3949 175.842 53.8081 175.767 54.2213H166.542C166.982 55.8405 168.323 56.5247 169.989 56.5247ZM165.559 43.8765C165.559 42.9687 166.318 42.21 167.226 42.21C168.133 42.21 168.865 42.9687 168.865 43.8765C168.865 44.7842 168.133 45.5159 167.226 45.5159C166.318 45.5159 165.559 44.7774 165.559 43.8765ZM172.733 51.7756C172.34 50.0142 171.019 49.3029 169.698 49.3029C168.011 49.3029 166.86 50.2107 166.494 51.7756H172.733ZM170.206 43.8765C170.206 42.9687 170.965 42.21 171.872 42.21C172.78 42.21 173.512 42.9687 173.512 43.8765C173.512 44.7842 172.78 45.5159 171.872 45.5159C170.965 45.5159 170.206 44.7774 170.206 43.8765Z" fill="#043E44"/>
<path d="M177.107 52.925C177.107 49.2802 179.85 46.4619 183.569 46.4619C185.967 46.4619 188.046 47.7356 189.049 49.619L186.332 51.211C185.845 50.2083 184.788 49.5716 183.542 49.5716C181.659 49.5716 180.263 50.9671 180.263 52.925C180.263 54.8558 181.659 56.2513 183.542 56.2513C184.815 56.2513 185.865 55.6416 186.353 54.6389L189.096 56.2039C188.046 58.1143 185.967 59.3879 183.569 59.3879C179.85 59.3879 177.107 56.5698 177.107 52.925Z" fill="#043E44"/>
<path d="M200.748 49.8435H196.928V59.0435H193.772V49.8435H189.904V46.8086H200.741V49.8435H200.748Z" fill="#043E44"/>
<path d="M201.066 52.925C201.066 49.2802 203.932 46.4619 207.528 46.4619C211.126 46.4619 214.011 49.2735 214.011 52.925C214.011 56.5698 211.126 59.3879 207.528 59.3879C203.932 59.3879 201.066 56.5698 201.066 52.925ZM210.855 52.925C210.855 50.94 209.411 49.5512 207.528 49.5512C205.672 49.5512 204.224 50.9469 204.224 52.925C204.224 54.9031 205.666 56.3055 207.528 56.3055C209.411 56.3055 210.855 54.91 210.855 52.925Z" fill="#043E44"/>
<path d="M223.601 59.0435L219.144 53.4884V59.0435H215.988V46.8086H219.144V52.1943L223.351 46.8086H227.117L222.198 52.8514L227.265 59.0435H223.601Z" fill="#043E44"/>
<path d="M46.9132 0.679688H12.5604C6.10223 0.679688 0.821289 5.96129 0.821289 12.4203V46.7778C0.821289 53.2369 6.10223 58.5187 12.5604 58.5187H46.9132C53.3714 58.5187 58.6524 53.2369 58.6524 46.7778V12.4203C58.6524 5.96796 53.3714 0.679688 46.9132 0.679688Z" fill="#043E44"/>
<path d="M30.018 20.8283L21.252 29.6022L30.018 38.3762C34.8601 43.2189 42.7084 43.2189 47.5438 38.3762C52.3858 33.5337 52.3858 25.6776 47.5438 20.835C42.7017 15.9858 34.8534 15.9858 30.018 20.8283Z" fill="white"/>
<path d="M14.1577 29.6022L5.3916 20.8283C4.74645 20.183 4.04808 19.6375 3.30981 19.1719V40.0324C4.04808 39.5668 4.74645 39.0147 5.3916 38.3695L14.1577 29.6022Z" fill="white"/>
<path d="M26.4667 41.9273L17.7072 33.1533L8.94105 41.9273C6.00792 44.8608 4.87723 48.932 5.49578 52.7369C7.19181 54.7457 9.73253 56.0295 12.5659 56.0295H28.901C31.0892 51.4198 30.2778 45.7389 26.4667 41.9273Z" fill="white"/>
<path d="M8.94061 17.2757L17.7001 26.0497L26.4663 17.2757C30.2774 13.4641 31.0754 7.77677 28.8872 3.16699H12.5588C9.72544 3.16699 7.18472 4.4508 5.48869 6.46628C4.87679 10.2645 6.01413 14.3488 8.94061 17.2757Z" fill="white"/>
</svg>
