<svg width="260" height="32" viewBox="0 0 260 32" fill="none" xmlns="http://www.w3.org/2000/svg">
<path d="M8.12204 30.5666L0.21167 1.40136H5.40063L11.4784 23.8018L17.9922 1.39941L22.8292 1.40136L29.3658 23.9208L35.471 1.40687L40.6598 1.39941L32.7461 30.5614L26.7315 30.5552L20.4127 8.77506L14.088 30.5608L8.12204 30.5666Z" fill="#BE11A5"/>
<path d="M44.239 1.41699H49.1784V30.5482H44.239V1.41699Z" fill="#BE11A5"/>
<path d="M59.7376 25.9786H71.7625V30.5482H54.9004V1.41699H59.7376V25.9786Z" fill="#BE11A5"/>
<path d="M86.9563 1.45058C91.01 1.45058 94.3825 2.86182 97.0396 5.6506C99.7307 8.43938 101.093 11.9002 101.093 15.9994C101.093 20.065 99.7307 23.5258 97.0396 26.3482C94.3825 29.1371 91.01 30.5482 86.9563 30.5482H75.3401V1.41699H86.9563V1.45058ZM86.9563 26.0122C89.7496 26.0122 92.0319 25.0714 93.7352 23.1898C95.5066 21.3082 96.3923 18.889 96.3923 16.033C96.3923 13.1098 95.5066 10.7578 93.7352 8.87624C91.9979 6.99455 89.7155 6.05376 86.9563 6.05376H80.2114V26.0122H86.9563Z" fill="#BE11A5"/>
<path d="M127.153 22.2262C127.153 24.613 126.302 26.5965 124.564 28.1765C122.827 29.7565 120.783 30.5633 118.262 30.5633H105.624V1.41699H117.342C119.761 1.41699 121.804 2.22386 123.474 3.73662C125.178 5.28296 125.995 7.19921 125.995 9.48514C125.995 12.0401 124.973 13.9899 122.998 15.4355C125.586 16.7802 127.153 19.2006 127.153 22.2262ZM110.495 5.92178V13.5866H117.376C119.523 13.5866 121.158 11.9056 121.158 9.75417C121.158 7.60259 119.523 5.92178 117.376 5.92178H110.495ZM118.296 26.0586C120.544 26.0586 122.316 24.2768 122.316 21.9909C122.316 19.7049 120.544 17.9232 118.296 17.9232H110.495V26.0922H118.296V26.0586Z" fill="#BE11A5"/>
<path d="M136.59 25.9913H149.671V30.5633H131.753V1.41699H149.467V5.98896H136.59V13.5529H148.411V18.0912H136.59V25.9913Z" fill="#BE11A5"/>
<path d="M170.859 30.5633L164.59 19.9402H158.867V30.5633H154.03V1.41699H165.85C168.508 1.41699 170.756 2.32463 172.562 4.17359C174.401 5.95537 175.355 8.17413 175.355 10.7963C175.355 14.4942 173.004 17.8895 169.496 19.2342L176.206 30.5633H170.859ZM158.867 5.92168V15.6707H165.817C168.405 15.6707 170.449 13.5193 170.449 10.7963C170.449 8.10684 168.372 5.92168 165.817 5.92168H158.867Z" fill="#BE11A5"/>
<path d="M196.714 30.5628L190.48 19.9342H184.757V30.5628H179.92V1.40137H191.74C194.398 1.40137 196.646 2.30954 198.452 4.15947C200.291 5.94212 201.245 8.16196 201.245 10.7855C201.245 14.4854 198.894 17.8825 195.386 19.2279L202.096 30.5628H196.714ZM184.757 5.90843V15.6626H191.707C194.295 15.6626 196.339 13.5099 196.339 10.7855C196.339 8.09478 194.262 5.90843 191.707 5.90843H184.757Z" fill="#BE11A5"/>
<path d="M205.638 1.40332H210.476V30.5615H205.638V1.40332Z" fill="#BE11A5"/>
<path d="M221.036 25.9913H234.117V30.5632H216.198V1.41699H233.912V5.98896H221.036V13.5529H232.856V18.0912H221.036V25.9913Z" fill="#BE11A5"/>
<path d="M237.49 23.9285L241.68 21.5093C242.872 24.8021 245.291 26.4149 249.004 26.4149C252.683 26.4149 254.488 24.8693 254.488 22.5846C254.488 21.375 253.978 20.5013 253.024 19.8965C252.07 19.2581 250.299 18.5525 247.778 17.8133C244.95 16.9733 243.554 16.4357 241.578 15.1589C239.671 13.8149 238.716 11.8997 238.716 9.27894C238.716 6.69169 239.636 4.67576 241.51 3.16376C243.35 1.61806 245.598 0.878906 248.221 0.878906C252.956 0.878906 256.601 3.29811 258.509 7.29649L254.42 9.61493C253.194 6.92691 251.116 5.54926 248.221 5.54926C245.393 5.54926 243.587 6.9605 243.587 9.17807C243.587 11.3286 245.018 12.3365 249.549 13.7141C250.673 14.0838 251.491 14.3526 252.002 14.5541C252.547 14.7221 253.262 15.0245 254.182 15.3941C255.136 15.7637 255.886 16.2006 256.329 16.5701C257.895 17.7797 259.564 19.7621 259.36 22.551C259.36 25.1717 258.406 27.2885 256.465 28.8341C254.556 30.3798 252.036 31.1189 248.902 31.1189C243.179 31.0853 239.023 28.3973 237.49 23.9285Z" fill="#BE11A5"/>
</svg>
