<svg width="271" height="51" viewBox="0 0 271 51" fill="none" xmlns="http://www.w3.org/2000/svg">
<path d="M127.491 42.425H132.842L140.322 14.6345V42.425H146.342V5.69531H138.072L130.592 32.6345L123.112 5.69531H114.659V42.425H119.828V14.6345L127.491 42.425ZM171.518 24.2426C171.518 17.7359 168.295 15.3034 161.605 15.3034C157.409 15.3034 154.126 16.5804 152.18 17.7359V22.9048C153.822 21.6277 157.531 20.2899 160.815 20.2899C163.916 20.2899 165.193 21.4453 165.193 24.1818V25.6413H164.22C154.612 25.6413 150.234 28.8642 150.234 34.2764C150.234 39.6886 153.457 42.7291 158.382 42.7291C162.092 42.7291 163.734 41.5737 164.889 40.2967H165.193C165.193 40.9656 165.497 41.9386 165.68 42.425H171.882C171.7 40.2967 171.578 38.0467 171.578 35.9183C171.518 35.9183 171.518 24.2426 171.518 24.2426ZM165.193 36.1007C164.403 37.2561 162.943 38.2291 160.632 38.2291C158.018 38.2291 156.741 36.5872 156.741 34.3372C156.741 31.2359 158.869 30.1413 164.403 30.1413H165.376V36.1615H165.193V36.1007ZM182.403 15.7899H176.565V50.0872H182.889V39.3845C184.531 41.8169 186.781 42.9723 189.578 42.9723C195.781 42.9723 199.977 38.1075 199.977 29.1683C199.977 20.2291 195.903 15.3642 189.882 15.3642C186.963 15.3642 184.531 16.6413 182.707 19.2561C182.768 19.1953 182.403 15.7899 182.403 15.7899ZM187.815 38.0467C184.592 38.0467 182.768 35.3102 182.768 29.2899C182.768 23.0872 184.531 20.3507 188.119 20.3507C191.524 20.3507 193.288 23.0872 193.288 29.1075C193.288 35.3102 191.524 38.0467 187.815 38.0467ZM219.619 42.425H226.795L216.7 28.1345L225.639 15.7899H219.315L210.376 28.1345V15.7899H204.051V42.425H210.376V29.4115L219.619 42.425ZM247.896 40.6615V35.4926C245.95 36.7696 242.727 37.925 239.626 37.925C235.065 37.925 233.301 35.7967 232.936 31.2359H248.018V27.8305C248.018 18.5872 243.943 15.1818 237.619 15.1818C229.957 15.1818 226.247 21.0196 226.247 29.1683C226.247 38.4115 230.808 42.9723 238.774 42.9723C243.213 42.9115 246.132 41.9386 247.896 40.6615ZM237.68 20.3507C240.781 20.3507 241.754 22.9656 241.754 26.1886V26.675H232.936C233.119 22.4791 234.761 20.3507 237.68 20.3507ZM270.639 20.8372V15.7899H249.538V20.8372H257.018V42.425H263.342V20.8372H270.639Z" fill="black"/>
<path d="M77.1408 48.9309C90.6408 48.9309 101.526 38.0458 101.526 24.5458C101.526 11.0458 90.6408 0.160645 77.1408 0.160645C63.6408 0.160645 52.7556 11.0458 52.7556 24.5458C52.634 38.0458 63.7016 48.9309 77.1408 48.9309Z" fill="#FED42B"/>
<path d="M25.025 48.9309C38.4926 48.9309 49.4102 38.0133 49.4102 24.5458C49.4102 11.0782 38.4926 0.160645 25.025 0.160645C11.5575 0.160645 0.639893 11.0782 0.639893 24.5458C0.639893 38.0133 11.5575 48.9309 25.025 48.9309Z" fill="#FC3F1D"/>
<path d="M28.5523 13.8428H26.1199C21.9239 13.8428 19.7956 15.9712 19.7956 19.1942C19.7956 22.782 21.255 24.5455 24.3564 26.6739L26.7888 28.4374L19.7956 39.3226H14.0793L20.7685 29.4104C16.8766 26.6739 14.7483 24.059 14.7483 19.4982C14.7483 13.782 18.6402 9.89014 26.1199 9.89014H33.5996V39.1401H28.7348V13.782H28.5523V13.8428Z" fill="white"/>
<mask id="mask0_285_4193" style="mask-type:luminance" maskUnits="userSpaceOnUse" x="52" y="0" width="50" height="49">
<path d="M77.1381 48.9324C90.6381 48.9324 101.523 38.0472 101.523 24.5472C101.523 11.0472 90.6381 0.162109 77.1381 0.162109C63.6381 0.162109 52.7529 11.0472 52.7529 24.5472C52.6313 38.0472 63.6989 48.9324 77.1381 48.9324Z" fill="white"/>
</mask>
<g mask="url(#mask0_285_4193)">
<path d="M65.1584 13.5402L43.6921 41.6348L49.4084 48.1416L65.3408 27.0402L63.6989 38.5943L72.6381 41.6956L83.5232 24.3037C83.0367 27.5267 82.2462 35.0064 89.3611 37.3172C100.55 40.7227 110.341 20.5943 114.841 10.3781L108.334 6.97266C103.287 17.5537 95.5029 29.2294 92.4016 28.4389C89.3002 27.6483 92.0975 17.7362 93.8611 11.351V11.1686L83.9489 7.7632L72.0908 27.101L73.7327 16.52L65.1584 13.5402Z" fill="black"/>
</g>
</svg>
